<svg width="327" height="180" viewBox="0 0 327 180" fill="none" xmlns="http://www.w3.org/2000/svg">
<rect x="34.4188" y="77.1353" width="260.581" height="79.4221" rx="9.65204" transform="rotate(2 34.4188 77.1353)" fill="white"/>
<rect x="33.9575" y="76.6405" width="261.537" height="80.3788" rx="10.1304" transform="rotate(2 33.9575 76.6405)" stroke="#00BB77" stroke-opacity="0.2" stroke-width="0.956666"/>
<rect x="24" y="88.439" width="275.887" height="79.4221" rx="9.65204" transform="rotate(-3 24 88.439)" fill="white"/>
<circle cx="57.1236" cy="130.375" r="12.065" transform="rotate(-3 57.1236 130.375)" fill="#00BB77"/>
<circle cx="57.1236" cy="130.375" r="11.2607" transform="rotate(-3 57.1236 130.375)" stroke="#00BB77" stroke-opacity="0.2" stroke-width="1.60867"/>
<path d="M53.2984 127.725L54.8524 127.644L57.1997 132.614L57.2819 132.61L59.0968 127.421L60.6508 127.34L61.0182 134.35L59.7996 134.414L59.5472 129.598L59.4822 129.601L57.7962 134.498L56.8857 134.546L54.6965 129.842L54.6314 129.845L54.8844 134.672L53.6658 134.735L53.2984 127.725Z" fill="white"/>
<circle cx="92.4658" cy="128.523" r="12.065" transform="rotate(-3 92.4658 128.523)" fill="#00BB77"/>
<circle cx="92.4658" cy="128.523" r="11.2607" transform="rotate(-3 92.4658 128.523)" stroke="#00BB77" stroke-opacity="0.2" stroke-width="1.60867"/>
<path d="M89.5745 126.892L89.5187 125.827L95.1117 125.534L95.1675 126.599L93.0008 126.712L93.3124 132.658L92.0528 132.724L91.7412 126.778L89.5745 126.892Z" fill="white"/>
<circle cx="127.808" cy="126.67" r="12.065" transform="rotate(-3 127.808 126.67)" fill="#00BB77"/>
<circle cx="127.808" cy="126.67" r="11.2607" transform="rotate(-3 127.808 126.67)" stroke="#00BB77" stroke-opacity="0.2" stroke-width="1.60867"/>
<path d="M125.341 130.979L122.995 124.073L124.361 124.001L125.894 129.086L125.959 129.083L127.038 123.861L128.28 123.796L129.902 128.88L129.964 128.876L130.957 123.655L132.322 123.584L130.711 130.697L129.459 130.763L127.798 125.918L127.743 125.921L126.594 130.913L125.341 130.979Z" fill="white"/>
<circle cx="163.15" cy="124.818" r="11.2607" transform="rotate(-3 163.15 124.818)" stroke="#00BB77" stroke-opacity="0.2" stroke-width="1.60867"/>
<path d="M162.561 113.57C162.538 113.128 162.878 112.748 163.321 112.754C165.507 112.785 167.649 113.409 169.514 114.568C171.608 115.868 173.253 117.777 174.229 120.04C175.205 122.302 175.465 124.81 174.973 127.224C174.535 129.376 173.519 131.363 172.041 132.974C171.742 133.3 171.232 133.287 170.926 132.966C170.62 132.646 170.635 132.14 170.931 131.81C172.173 130.428 173.029 128.735 173.401 126.904C173.827 124.811 173.602 122.637 172.756 120.675C171.91 118.713 170.483 117.058 168.668 115.931C167.081 114.945 165.263 114.405 163.405 114.36C162.962 114.349 162.584 114.013 162.561 113.57Z" fill="#00BB77"/>
<path d="M160.259 123.187L160.203 122.123L165.796 121.83L165.852 122.894L163.685 123.008L163.997 128.953L162.737 129.019L162.426 123.074L160.259 123.187Z" fill="#00BB77"/>
<rect x="152.07" y="143.924" width="24.1301" height="1.60867" rx="0.804337" transform="rotate(-3 152.07 143.924)" fill="#00BB77"/>
<circle cx="198.493" cy="122.966" r="11.2607" transform="rotate(-3 198.493 122.966)" stroke="#00BB77" stroke-opacity="0.2" stroke-width="1.60867"/>
<path d="M196.579 127.246L196.211 120.236L200.702 120L200.758 121.065L197.537 121.234L197.637 123.137L200.55 122.984L200.605 124.049L197.693 124.201L197.849 127.179L196.579 127.246Z" fill="#00BB77"/>
<circle cx="233.835" cy="121.113" r="11.2607" transform="rotate(-3 233.835 121.113)" stroke="#00BB77" stroke-opacity="0.2" stroke-width="1.60867"/>
<path d="M235.158 120.127C235.111 119.829 234.964 119.604 234.718 119.45C234.474 119.295 234.164 119.228 233.788 119.248C233.523 119.262 233.298 119.314 233.113 119.403C232.927 119.493 232.788 119.609 232.695 119.751C232.602 119.893 232.559 120.052 232.566 120.228C232.573 120.374 232.613 120.499 232.685 120.603C232.759 120.707 232.856 120.793 232.976 120.862C233.097 120.929 233.229 120.984 233.373 121.027C233.517 121.07 233.662 121.104 233.807 121.131L234.473 121.261C234.741 121.309 235 121.379 235.249 121.471C235.501 121.563 235.729 121.684 235.931 121.833C236.136 121.983 236.301 122.167 236.427 122.387C236.553 122.607 236.624 122.869 236.639 123.172C236.661 123.583 236.575 123.95 236.381 124.274C236.188 124.595 235.897 124.854 235.509 125.051C235.123 125.245 234.65 125.357 234.089 125.386C233.543 125.415 233.065 125.355 232.655 125.207C232.247 125.059 231.921 124.829 231.678 124.517C231.438 124.205 231.296 123.816 231.253 123.352L232.503 123.286C232.534 123.529 232.62 123.729 232.761 123.884C232.901 124.039 233.08 124.151 233.296 124.219C233.515 124.288 233.757 124.315 234.021 124.302C234.298 124.287 234.537 124.233 234.741 124.14C234.946 124.045 235.104 123.92 235.215 123.765C235.326 123.609 235.377 123.43 235.369 123.229C235.357 123.046 235.296 122.898 235.185 122.785C235.073 122.67 234.921 122.577 234.727 122.507C234.536 122.435 234.313 122.373 234.058 122.323L233.25 122.159C232.665 122.041 232.197 121.84 231.846 121.557C231.497 121.27 231.309 120.876 231.283 120.374C231.261 119.961 231.354 119.594 231.561 119.272C231.771 118.95 232.065 118.693 232.444 118.501C232.823 118.308 233.258 118.198 233.748 118.172C234.246 118.146 234.686 118.21 235.069 118.364C235.455 118.515 235.763 118.738 235.993 119.033C236.224 119.325 236.353 119.668 236.38 120.063L235.158 120.127Z" fill="#00BB77"/>
<circle cx="269.177" cy="119.261" r="11.2607" transform="rotate(-3 269.177 119.261)" stroke="#00BB77" stroke-opacity="0.2" stroke-width="1.60867"/>
<path d="M270.501 118.275C270.453 117.977 270.306 117.752 270.06 117.598C269.817 117.443 269.506 117.376 269.13 117.396C268.865 117.41 268.64 117.461 268.455 117.551C268.27 117.641 268.131 117.757 268.037 117.899C267.944 118.041 267.901 118.2 267.908 118.376C267.916 118.522 267.955 118.647 268.027 118.751C268.101 118.855 268.198 118.941 268.319 119.01C268.439 119.077 268.571 119.132 268.715 119.175C268.859 119.218 269.004 119.252 269.15 119.279L269.815 119.409C270.083 119.457 270.342 119.527 270.592 119.619C270.844 119.711 271.071 119.832 271.273 119.981C271.478 120.131 271.643 120.315 271.769 120.535C271.895 120.755 271.966 121.017 271.982 121.32C272.003 121.731 271.917 122.098 271.724 122.422C271.53 122.743 271.239 123.002 270.852 123.199C270.466 123.393 269.992 123.505 269.431 123.534C268.886 123.563 268.408 123.503 267.997 123.355C267.589 123.207 267.263 122.977 267.021 122.665C266.78 122.353 266.638 121.964 266.596 121.5L267.845 121.434C267.876 121.677 267.962 121.877 268.103 122.032C268.244 122.187 268.422 122.299 268.639 122.367C268.857 122.436 269.099 122.463 269.364 122.45C269.64 122.435 269.88 122.381 270.083 122.288C270.289 122.193 270.447 122.068 270.558 121.913C270.668 121.756 270.72 121.578 270.711 121.377C270.7 121.194 270.638 121.046 270.527 120.933C270.416 120.818 270.263 120.725 270.07 120.655C269.878 120.583 269.655 120.521 269.401 120.471L268.593 120.307C268.007 120.189 267.539 119.988 267.188 119.704C266.839 119.418 266.651 119.024 266.625 118.522C266.603 118.109 266.696 117.742 266.904 117.42C267.113 117.098 267.408 116.841 267.786 116.649C268.165 116.456 268.6 116.346 269.091 116.32C269.588 116.294 270.028 116.358 270.412 116.512C270.797 116.663 271.105 116.886 271.336 117.181C271.566 117.473 271.695 117.816 271.723 118.211L270.501 118.275Z" fill="#00BB77"/>
<rect x="23.4973" y="87.9863" width="276.844" height="80.3788" rx="10.1304" transform="rotate(-3 23.4973 87.9863)" stroke="#00BB77" stroke-opacity="0.2" stroke-width="0.956666"/>
<circle cx="184.982" cy="59.5247" r="43.2416" transform="rotate(6 184.982 59.5247)" fill="#0066FF"/>
<circle cx="184.982" cy="59.5247" r="44.2472" transform="rotate(6 184.982 59.5247)" stroke="#0066FF" stroke-opacity="0.2" stroke-width="2.01124"/>
<path d="M164.471 45.0356L161.869 44.7622L158.412 46.4736L158.154 48.9284L161.35 47.3641L161.427 47.3721L160.327 57.837L163.095 58.128L164.471 45.0356ZM170.97 59.1366C173.885 59.443 176.066 57.7526 176.338 55.1054C176.607 52.6001 175.045 50.6132 172.686 50.3653C171.536 50.2444 170.494 50.6197 169.966 51.217L169.89 51.2089L170.573 47.965L176.295 48.5664L176.532 46.3034L168.529 45.4621L167.183 52.3011L169.598 53.0009C170.058 52.4998 170.873 52.243 171.647 52.3243C172.963 52.4691 173.809 53.5211 173.665 54.8955C173.521 56.2572 172.496 57.0995 171.198 56.9631C170.098 56.8475 169.282 56.0637 169.325 55.0405L166.64 54.7583C166.454 57.0267 168.259 58.8517 170.97 59.1366ZM182.001 60.1151L184.725 60.4014L185.344 54.5073C185.458 53.4205 186.225 52.7707 187.133 52.8661C188.028 52.9602 188.564 53.637 188.463 54.6023L187.819 60.7266L190.459 61.0041L191.089 55.0077C191.196 53.9912 191.85 53.3619 192.841 53.4661C193.711 53.5575 194.306 54.1694 194.191 55.2625L193.553 61.3293L196.27 61.6148L196.964 55.0111C197.188 52.8823 196.05 51.5347 194.221 51.3425C192.783 51.1913 191.587 51.8089 191.066 52.8917L190.964 52.881C190.77 51.7101 189.842 50.8823 188.494 50.7405C187.17 50.6014 186.093 51.1991 185.562 52.3132L185.447 52.3011L185.629 50.5687L183.033 50.2959L182.001 60.1151ZM198.421 61.8409L201.144 62.1271L202.177 52.3079L199.453 52.0217L198.421 61.8409ZM200.954 50.8997C201.766 50.985 202.496 50.4348 202.576 49.6741C202.655 48.9197 202.056 48.2297 201.244 48.1444C200.438 48.0598 199.708 48.61 199.629 49.3643C199.549 50.1251 200.149 50.815 200.954 50.8997ZM206.646 56.9659C206.785 55.7008 207.618 55.0385 208.717 55.1541C209.81 55.269 210.394 56.0542 210.261 57.2554L209.655 63.0216L212.378 63.3079L213.035 57.0558C213.276 54.7671 212.081 53.2196 210.035 53.0046C208.578 52.8514 207.448 53.4566 206.887 54.5545L206.771 54.5424L206.954 52.81L204.358 52.5372L203.326 62.3564L206.049 62.6427L206.646 56.9659Z" fill="white"/>
<path d="M162.681 75.7935L163.622 66.8428L164.588 66.9444L164.479 67.9785L164.598 67.991C164.683 67.8857 164.8 67.7523 164.949 67.5907C165.1 67.4267 165.306 67.2884 165.566 67.1758C165.83 67.0606 166.174 67.0253 166.597 67.0699C167.145 67.1275 167.614 67.3153 168.004 67.6333C168.393 67.9513 168.678 68.3741 168.86 68.9017C169.042 69.4292 169.097 70.0349 169.025 70.7186C168.952 71.408 168.772 71.9932 168.484 72.4743C168.197 72.9526 167.831 73.3083 167.387 73.5416C166.943 73.772 166.449 73.8587 165.907 73.8016C165.489 73.7577 165.161 73.6533 164.924 73.4884C164.688 73.3207 164.511 73.1407 164.394 72.9485C164.277 72.7534 164.189 72.5927 164.128 72.4663L164.043 72.4574L163.681 75.8987L162.681 75.7935ZM164.263 70.201C164.211 70.6926 164.238 71.1339 164.342 71.5248C164.447 71.9129 164.627 72.2274 164.882 72.4684C165.136 72.7066 165.465 72.8468 165.866 72.8889C166.284 72.9329 166.644 72.8594 166.947 72.6684C167.253 72.4749 167.497 72.1977 167.677 71.8367C167.861 71.4733 167.978 71.0599 168.026 70.5965C168.074 70.1388 168.047 69.7189 167.944 69.3368C167.845 68.9521 167.665 68.6375 167.405 68.3931C167.148 68.1462 166.808 68.0004 166.384 67.9559C165.977 67.9131 165.625 67.9803 165.326 68.1575C165.028 68.3318 164.789 68.5952 164.609 68.9476C164.429 69.2972 164.314 69.715 164.263 70.201ZM172.925 74.5393C172.298 74.4734 171.771 74.2781 171.346 73.9534C170.923 73.6261 170.615 73.1996 170.422 72.6736C170.232 72.1452 170.172 71.5476 170.242 70.8808C170.312 70.214 170.495 69.6391 170.791 69.1561C171.091 68.6705 171.475 68.3081 171.943 68.0688C172.414 67.8269 172.943 67.7369 173.531 67.7986C173.87 67.8343 174.199 67.926 174.517 68.0737C174.836 68.2215 175.118 68.4367 175.362 68.7195C175.607 68.9995 175.788 69.3556 175.905 69.7879C176.023 70.2201 176.05 70.74 175.986 71.3474L175.941 71.7712L170.923 71.2438L171.014 70.3793L175.015 70.7997C175.054 70.4325 175.015 70.097 174.898 69.7934C174.784 69.49 174.602 69.2409 174.351 69.046C174.103 68.8514 173.798 68.7351 173.436 68.6971C173.038 68.6552 172.683 68.7179 172.371 68.8851C172.062 69.0497 171.814 69.2807 171.625 69.578C171.437 69.8752 171.324 70.2033 171.286 70.5621L171.226 71.1385C171.174 71.6301 171.215 72.0557 171.349 72.4154C171.485 72.7726 171.697 73.0562 171.983 73.2663C172.27 73.4735 172.615 73.5984 173.02 73.6408C173.282 73.6684 173.523 73.6567 173.743 73.6055C173.966 73.5518 174.163 73.4582 174.334 73.3248C174.505 73.1885 174.645 73.0119 174.754 72.7947L175.692 73.1675C175.555 73.4846 175.354 73.7548 175.088 73.9782C174.822 74.1988 174.505 74.3597 174.137 74.461C173.77 74.5595 173.366 74.5856 172.925 74.5393ZM177.156 74.8469L177.84 68.3373L178.807 68.4388L178.703 69.4221L178.771 69.4292C178.924 69.1196 179.166 68.8808 179.498 68.7129C179.83 68.5449 180.19 68.4814 180.58 68.5224C180.654 68.5301 180.745 68.5412 180.855 68.5556C180.965 68.57 181.048 68.583 181.104 68.5946L180.997 69.6117C180.964 69.5997 180.888 69.5788 180.768 69.5491C180.651 69.5168 180.527 69.4937 180.394 69.4798C180.078 69.4465 179.788 69.4832 179.525 69.5899C179.266 69.694 179.052 69.8543 178.884 70.0709C178.718 70.2849 178.62 70.5388 178.589 70.8326L178.156 74.952L177.156 74.8469ZM187.397 76.0603C186.854 76.0033 186.39 75.816 186.003 75.4982C185.617 75.1777 185.333 74.7537 185.152 74.2261C184.97 73.6957 184.916 73.0858 184.988 72.3964C185.06 71.7127 185.24 71.1317 185.527 70.6534C185.814 70.1752 186.182 69.821 186.629 69.5909C187.076 69.3608 187.573 69.2745 188.121 69.3321C188.545 69.3767 188.872 69.4825 189.103 69.6496C189.337 69.8142 189.51 69.9923 189.621 70.184C189.736 70.3731 189.824 70.528 189.885 70.6487L189.97 70.6577L190.307 67.4537L191.307 67.5588L190.395 76.2383L189.428 76.1367L189.534 75.1366L189.415 75.1241C189.329 75.235 189.209 75.3738 189.054 75.5404C188.9 75.7041 188.689 75.8434 188.423 75.9582C188.157 76.0702 187.815 76.1043 187.397 76.0603ZM187.627 75.1761C188.028 75.2183 188.378 75.1494 188.677 74.9694C188.976 74.7866 189.217 74.5163 189.401 74.1585C189.584 73.7979 189.702 73.3718 189.754 72.8802C189.805 72.3942 189.779 71.9616 189.676 71.5822C189.573 71.2001 189.394 70.8928 189.138 70.6602C188.883 70.4249 188.552 70.2858 188.145 70.2431C187.722 70.1985 187.357 70.2702 187.052 70.458C186.749 70.6434 186.508 70.9137 186.328 71.2689C186.151 71.6217 186.038 72.0269 185.99 72.4846C185.941 72.948 185.968 73.3764 186.069 73.7698C186.174 74.1607 186.354 74.4825 186.611 74.7351C186.87 74.9852 187.209 75.1322 187.627 75.1761ZM194.265 76.7993C193.852 76.756 193.486 76.6389 193.166 76.4482C192.847 76.2546 192.604 75.9991 192.437 75.6817C192.271 75.3614 192.21 74.9894 192.254 74.5656C192.294 74.1926 192.399 73.898 192.57 73.6818C192.742 73.4627 192.957 73.2997 193.217 73.1928C193.477 73.0858 193.759 73.0154 194.062 72.9816C194.369 72.9453 194.675 72.9233 194.982 72.9155C195.383 72.9062 195.707 72.9018 195.956 72.9022C196.207 72.9 196.393 72.8724 196.513 72.8193C196.636 72.7665 196.705 72.6596 196.722 72.4985L196.726 72.4646C196.77 72.0465 196.689 71.7095 196.485 71.4538C196.283 71.1984 195.952 71.0465 195.492 70.9981C195.014 70.9479 194.629 71.0131 194.336 71.1936C194.042 71.3742 193.828 71.5774 193.693 71.8031L192.779 71.3643C192.991 70.9866 193.249 70.7023 193.555 70.5117C193.863 70.3185 194.191 70.1957 194.536 70.1435C194.885 70.0887 195.223 70.0785 195.55 70.113C195.759 70.135 195.997 70.1856 196.263 70.265C196.532 70.3418 196.785 70.4699 197.024 70.6492C197.265 70.8288 197.454 71.0815 197.591 71.4072C197.728 71.733 197.77 72.1544 197.715 72.6715L197.265 76.9603L196.264 76.8552L196.357 75.9737L196.306 75.9684C196.223 76.1025 196.095 76.2418 195.919 76.3862C195.744 76.5306 195.519 76.6455 195.245 76.7309C194.97 76.8163 194.643 76.8391 194.265 76.7993ZM194.512 75.9169C194.907 75.9585 195.249 75.9158 195.537 75.7889C195.827 75.6623 196.054 75.4834 196.219 75.2522C196.386 75.0212 196.483 74.7701 196.512 74.4989L196.608 73.5835C196.56 73.6299 196.462 73.6667 196.314 73.6939C196.168 73.7186 196.001 73.7367 195.811 73.7482C195.624 73.7572 195.442 73.7637 195.265 73.7679C195.09 73.7696 194.949 73.7718 194.84 73.7747C194.576 73.7813 194.328 73.8108 194.094 73.8634C193.863 73.9133 193.67 74.0059 193.516 74.1411C193.365 74.2738 193.276 74.4673 193.249 74.7216C193.213 75.0691 193.314 75.3453 193.552 75.5504C193.794 75.7529 194.114 75.875 194.512 75.9169ZM199.245 79.6365C199.075 79.6187 198.925 79.5887 198.796 79.5465C198.665 79.5071 198.576 79.472 198.528 79.4412L198.875 78.5865C199.111 78.6742 199.324 78.7193 199.512 78.722C199.7 78.7246 199.874 78.6586 200.034 78.524C200.197 78.3926 200.356 78.1679 200.512 77.8501L200.752 77.3612L199.033 70.5647L200.117 70.6787L201.369 76.0549L201.437 76.062L203.779 71.0636L204.864 71.1776L201.317 78.3461C201.157 78.6692 200.974 78.9313 200.767 79.1324C200.56 79.3363 200.329 79.4792 200.075 79.561C199.824 79.6431 199.547 79.6683 199.245 79.6365Z" fill="white"/>
<path d="M116.764 42.9216C117.933 41.8179 119.646 41.5158 121.121 42.1533L125.657 44.1127C126.453 44.4566 127.338 44.534 128.182 44.3336L132.989 43.1915C134.552 42.82 136.187 43.415 137.146 44.7048L140.094 48.6694C140.612 49.3652 141.34 49.8751 142.171 50.1233L146.905 51.5376C148.445 51.9977 149.563 53.3305 149.749 54.927L150.319 59.8345C150.42 60.6957 150.795 61.5015 151.391 62.1318L154.783 65.7235C155.887 66.892 156.189 68.6053 155.551 70.0808L153.592 74.6162C153.248 75.4121 153.171 76.2978 153.371 77.1414L154.513 81.9481C154.885 83.5119 154.29 85.1467 153 86.1058L149.035 89.0539C148.34 89.5712 147.83 90.2995 147.581 91.1303L146.167 95.864C145.707 97.4041 144.374 98.5224 142.778 98.7081L137.87 99.2789C137.009 99.379 136.203 99.7548 135.573 100.35L131.981 103.743C130.813 104.846 129.099 105.148 127.624 104.511L123.089 102.551C122.293 102.208 121.407 102.13 120.563 102.331L115.757 103.473C114.193 103.844 112.558 103.249 111.599 101.959L108.651 97.9948C108.134 97.299 107.405 96.789 106.575 96.5409L101.841 95.1266C100.301 94.6665 99.1824 93.3337 98.9967 91.7372L98.4259 86.8297C98.3257 85.9685 97.95 85.1627 97.3546 84.5324L93.9622 80.9407C92.8585 79.7722 92.5564 78.0588 93.1939 76.5833L95.1533 72.048C95.4972 71.2521 95.5747 70.3663 95.3742 69.5228L94.2321 64.7161C93.8606 63.1523 94.4556 61.5174 95.7454 60.5584L99.71 57.6103C100.406 57.093 100.916 56.3647 101.164 55.5339L102.578 50.8001C103.038 49.2601 104.371 48.1418 105.968 47.9561L110.875 47.3853C111.736 47.2851 112.542 46.9094 113.172 46.314L116.764 42.9216Z" fill="#FF8833"/>
<path d="M126.056 43.1895L125.657 44.1127L126.056 43.1895L121.52 41.2301C119.676 40.4333 117.534 40.8109 116.074 42.1905L112.482 45.583C112.009 46.0295 111.405 46.3113 110.759 46.3864L105.851 46.9572C103.856 47.1893 102.19 48.5872 101.615 50.5123L100.2 55.246C100.014 55.8691 99.6318 56.4153 99.11 56.8033L95.1454 59.7514C93.5331 60.9503 92.7893 62.9938 93.2538 64.9486L94.3959 69.7553C94.5462 70.3879 94.4881 71.0522 94.2302 71.6491L92.2707 76.1845C91.4739 78.0289 91.8516 80.1706 93.2311 81.6312L96.6236 85.2229C97.0701 85.6956 97.3519 86.3 97.427 86.9459L97.9978 91.8533C98.2299 93.849 99.6278 95.515 101.553 96.0901L106.287 97.5044C106.91 97.6905 107.456 98.073 107.844 98.5948L110.792 102.559C111.991 104.172 114.034 104.915 115.989 104.451L120.796 103.309C121.429 103.159 122.093 103.217 122.69 103.475L127.225 105.434C129.07 106.231 131.211 105.853 132.672 104.474L136.264 101.081C136.736 100.635 137.341 100.353 137.986 100.278L142.894 99.707C144.89 99.4749 146.556 98.077 147.131 96.1519L148.545 91.4181C148.731 90.7951 149.114 90.2488 149.635 89.8608L153.6 86.9128C155.212 85.7139 155.956 83.6704 155.492 81.7156L154.35 76.9089C154.199 76.2763 154.257 75.612 154.515 75.015L156.475 70.4797C157.271 68.6353 156.894 66.4936 155.514 65.033L152.122 61.4413C151.675 60.9685 151.393 60.3642 151.318 59.7183L150.748 54.8108C150.515 52.8151 149.118 51.1492 147.193 50.5741L142.459 49.1598C141.836 48.9736 141.289 48.5912 140.901 48.0694L137.953 44.1048C136.755 42.4925 134.711 41.7487 132.756 42.2132L127.95 43.3552C127.317 43.5056 126.653 43.4474 126.056 43.1895Z" stroke="#FF8833" stroke-opacity="0.2" stroke-width="2.01124"/>
<g clip-path="url(#clip0_1_1423)">
<path d="M127.496 87.1909C133.312 86.0605 137.107 80.418 135.974 74.588C134.965 69.3969 129.208 63.9511 125.364 60.8164C124.106 59.7905 123.477 59.2776 122.851 59.4098C122.663 59.4494 122.465 59.5406 122.312 59.6574C121.804 60.0471 121.782 60.8871 121.738 62.5671L121.607 67.5951C121.584 68.4595 121.573 68.8916 121.425 69.0425C121.286 69.1843 121.081 69.2376 120.89 69.1811C120.688 69.1209 120.468 68.7486 120.029 68.0038C119.375 66.8931 119.047 66.3378 118.619 66.1681C118.229 66.0136 117.744 66.0629 117.393 66.2927C117.008 66.5449 116.809 67.1282 116.41 68.2947C115.168 71.9253 114.353 75.793 114.915 78.6815C116.048 84.5115 121.681 88.3213 127.496 87.1909Z" fill="white"/>
</g>
<defs>
<clipPath id="clip0_1_1423">
<rect width="32.1798" height="32.1798" fill="white" transform="translate(106.074 61.3047) rotate(-11)"/>
</clipPath>
</defs>
</svg>
