<svg width="18" height="12" viewBox="0 0 18 12" fill="none" xmlns="http://www.w3.org/2000/svg">
<path d="M0.666626 0.999837C0.666626 0.5396 1.03972 0.166504 1.49996 0.166504H16.5C16.9602 0.166504 17.3333 0.5396 17.3333 0.999837C17.3333 1.46008 16.9602 1.83317 16.5 1.83317H1.49996C1.03972 1.83317 0.666626 1.46008 0.666626 0.999837Z" fill="black"/>
<path d="M0.666626 5.99984C0.666626 5.5396 1.03972 5.1665 1.49996 5.1665H16.5C16.9602 5.1665 17.3333 5.5396 17.3333 5.99984C17.3333 6.46008 16.9602 6.83317 16.5 6.83317H1.49996C1.03972 6.83317 0.666626 6.46008 0.666626 5.99984Z" fill="black"/>
<path d="M1.49996 10.1665C1.03972 10.1665 0.666626 10.5396 0.666626 10.9998C0.666626 11.4601 1.03972 11.8332 1.49996 11.8332H16.5C16.9602 11.8332 17.3333 11.4601 17.3333 10.9998C17.3333 10.5396 16.9602 10.1665 16.5 10.1665H1.49996Z" fill="black"/>
</svg>
