<svg width="113" height="56" viewBox="0 0 113 56" fill="none" xmlns="http://www.w3.org/2000/svg">
<rect x="0.5" width="112" height="56" rx="28" fill="white"/>
<rect x="4.5" y="4" width="48" height="48" rx="24" fill="#0066FF"/>
<path fill-rule="evenodd" clip-rule="evenodd" d="M24.5001 30.2819V33.7181C24.5001 34.1638 24.4536 34.3255 24.3665 34.4884C24.2793 34.6514 24.1514 34.7793 23.9885 34.8664C23.8255 34.9536 23.6639 35 23.2181 35H21.5001C19.8432 35 18.5001 33.6569 18.5001 32C18.5001 30.6938 19.3349 29.5825 20.5001 29.1707V27C20.5001 22.5817 24.0818 19 28.5001 19C32.9183 19 36.5001 22.5817 36.5001 27V29.1707C37.6653 29.5825 38.5001 30.6938 38.5001 32C38.5001 33.6569 37.1569 35 35.5001 35H33.782C33.3362 35 33.1746 34.9536 33.0116 34.8664C32.8487 34.7793 32.7208 34.6514 32.6336 34.4884C32.5465 34.3255 32.5001 34.1638 32.5001 33.7181V30.2819C32.5001 29.8362 32.5465 29.6745 32.6336 29.5116C32.7208 29.3486 32.8487 29.2207 33.0116 29.1336C33.1746 29.0464 33.3362 29 33.782 29H34.5001V27C34.5001 23.6863 31.8138 21 28.5001 21C25.1864 21 22.5001 23.6863 22.5001 27V29H23.2181C23.6639 29 23.8255 29.0464 23.9885 29.1336C24.1514 29.2207 24.2793 29.3486 24.3665 29.5116C24.4536 29.6745 24.5001 29.8362 24.5001 30.2819Z" fill="white"/>
<path fill-rule="evenodd" clip-rule="evenodd" d="M76.4999 26C76.4999 25.4477 76.9477 25 77.4999 25H87.4999C88.0522 25 88.4999 25.4477 88.4999 26C88.4999 26.5523 88.0522 27 87.4999 27H77.4999C76.9477 27 76.4999 26.5523 76.4999 26ZM76.4999 22C76.4999 21.4477 76.9477 21 77.4999 21H91.4999C92.0522 21 92.4999 21.4477 92.4999 22C92.4999 22.5523 92.0522 23 91.4999 23H77.4999C76.9477 23 76.4999 22.5523 76.4999 22ZM76.4999 30C76.4999 29.4477 76.9477 29 77.4999 29H91.4999C92.0522 29 92.4999 29.4477 92.4999 30C92.4999 30.5523 92.0522 31 91.4999 31H77.4999C76.9477 31 76.4999 30.5523 76.4999 30ZM76.4999 34C76.4999 33.4477 76.9477 33 77.4999 33H84.4999C85.0522 33 85.4999 33.4477 85.4999 34C85.4999 34.5523 85.0522 35 84.4999 35H77.4999C76.9477 35 76.4999 34.5523 76.4999 34Z" fill="black"/>
<rect x="1" y="0.5" width="111" height="55" rx="27.5" stroke="black" stroke-opacity="0.1"/>
</svg>
