<svg width="113" height="56" viewBox="0 0 113 56" fill="none" xmlns="http://www.w3.org/2000/svg">
<rect x="0.5" width="112" height="56" rx="28" fill="white"/>
<path fill-rule="evenodd" clip-rule="evenodd" d="M24.5 30.2819V33.7181C24.5 34.1638 24.4536 34.3255 24.3664 34.4884C24.2793 34.6514 24.1514 34.7793 23.9884 34.8664C23.8255 34.9536 23.6638 35 23.2181 35H21.5C19.8431 35 18.5 33.6569 18.5 32C18.5 30.6938 19.3348 29.5825 20.5 29.1707V27C20.5 22.5817 24.0817 19 28.5 19C32.9183 19 36.5 22.5817 36.5 27V29.1707C37.6652 29.5825 38.5 30.6938 38.5 32C38.5 33.6569 37.1569 35 35.5 35H33.7819C33.3362 35 33.1745 34.9536 33.0116 34.8664C32.8486 34.7793 32.7207 34.6514 32.6336 34.4884C32.5464 34.3255 32.5 34.1638 32.5 33.7181V30.2819C32.5 29.8362 32.5464 29.6745 32.6336 29.5116C32.7207 29.3486 32.8486 29.2207 33.0116 29.1336C33.1745 29.0464 33.3362 29 33.7819 29H34.5V27C34.5 23.6863 31.8137 21 28.5 21C25.1863 21 22.5 23.6863 22.5 27V29H23.2181C23.6638 29 23.8255 29.0464 23.9884 29.1336C24.1514 29.2207 24.2793 29.3486 24.3664 29.5116C24.4536 29.6745 24.5 29.8362 24.5 30.2819Z" fill="black"/>
<rect x="60.5" y="4" width="48" height="48" rx="24" fill="#0066FF"/>
<path fill-rule="evenodd" clip-rule="evenodd" d="M76.5 26C76.5 25.4477 76.9477 25 77.5 25H87.5C88.0523 25 88.5 25.4477 88.5 26C88.5 26.5523 88.0523 27 87.5 27H77.5C76.9477 27 76.5 26.5523 76.5 26ZM76.5 22C76.5 21.4477 76.9477 21 77.5 21H91.5C92.0523 21 92.5 21.4477 92.5 22C92.5 22.5523 92.0523 23 91.5 23H77.5C76.9477 23 76.5 22.5523 76.5 22ZM76.5 30C76.5 29.4477 76.9477 29 77.5 29H91.5C92.0523 29 92.5 29.4477 92.5 30C92.5 30.5523 92.0523 31 91.5 31H77.5C76.9477 31 76.5 30.5523 76.5 30ZM76.5 34C76.5 33.4477 76.9477 33 77.5 33H84.5C85.0523 33 85.5 33.4477 85.5 34C85.5 34.5523 85.0523 35 84.5 35H77.5C76.9477 35 76.5 34.5523 76.5 34Z" fill="white"/>
<rect x="1" y="0.5" width="111" height="55" rx="27.5" stroke="black" stroke-opacity="0.1"/>
</svg>
