<svg width="18" height="18" viewBox="0 0 18 18" fill="none" xmlns="http://www.w3.org/2000/svg">
<path d="M11.5001 6.49984C11.5001 7.88055 10.3808 8.99984 9.00008 8.99984C7.61937 8.99984 6.50008 7.88055 6.50008 6.49984C6.50008 5.11913 7.61937 3.99984 9.00008 3.99984C10.3808 3.99984 11.5001 5.11913 11.5001 6.49984Z" fill="black"/>
<path fill-rule="evenodd" clip-rule="evenodd" d="M17.3334 8.99984C17.3334 13.6022 13.6025 17.3332 9.00008 17.3332C4.39771 17.3332 0.666748 13.6022 0.666748 8.99984C0.666748 4.39746 4.39771 0.666504 9.00008 0.666504C13.6025 0.666504 17.3334 4.39746 17.3334 8.99984ZM2.33341 8.99984C2.33341 10.3905 2.75922 11.6817 3.48755 12.7502C4.95663 11.4534 6.88646 10.6665 9.00008 10.6665C11.1137 10.6665 13.0435 11.4534 14.5126 12.7502C15.2409 11.6817 15.6667 10.3905 15.6667 8.99984C15.6667 5.31794 12.682 2.33317 9.00008 2.33317C5.31818 2.33317 2.33341 5.31794 2.33341 8.99984ZM9.00008 15.6665C7.30934 15.6665 5.7656 15.0371 4.59037 13.9998C5.7656 12.9626 7.30934 12.3332 9.00008 12.3332C10.6908 12.3332 12.2346 12.9626 13.4098 13.9998C12.2346 15.0371 10.6908 15.6665 9.00008 15.6665Z" fill="black"/>
</svg>
