<svg width="327" height="180" viewBox="0 0 327 180" fill="none" xmlns="http://www.w3.org/2000/svg">
<rect x="69.438" y="29" width="188.125" height="36" rx="8" fill="white"/>
<rect x="68.938" y="28.5" width="189.125" height="37" rx="8.5" stroke="#0066FF" stroke-opacity="0.2"/>
<rect x="50.7197" y="41" width="225.562" height="28" rx="8" fill="white"/>
<rect x="50.2197" y="40.5" width="226.562" height="29" rx="8.5" stroke="#0066FF" stroke-opacity="0.2"/>
<rect x="32" y="53" width="263" height="98" rx="8" fill="white"/>
<path fill-rule="evenodd" clip-rule="evenodd" d="M65.3689 80.0458C65.8711 79.3929 66.9059 79.9094 66.6861 80.7032L64.25 89.5003H70.2269C70.8491 89.5003 71.2007 90.2144 70.8213 90.7076L60.6312 103.955C60.129 104.608 59.0941 104.091 59.3139 103.297L61.75 94.5003H55.7732C55.1509 94.5003 54.7993 93.7862 55.1787 93.293L65.3689 80.0458Z" fill="#0066FF"/>
<rect x="87" y="77" width="172" height="10" rx="4" fill="#0066FF" fill-opacity="0.2"/>
<rect x="87" y="97" width="188" height="10" rx="4" fill="#0066FF" fill-opacity="0.2"/>
<rect x="87" y="117" width="142" height="10" rx="4" fill="#0066FF" fill-opacity="0.2"/>
<rect x="31.5" y="52.5" width="264" height="99" rx="8.5" stroke="#0066FF" stroke-opacity="0.2"/>
</svg>
